<svg viewBox="0 0 512 512" xmlns="http://www.w3.org/2000/svg">
  <defs>
    <!-- 背景グラデーション -->
    <radialGradient id="bgGradient" cx="50%" cy="50%">
      <stop offset="0%" style="stop-color:#4f46e5;stop-opacity:1" />
      <stop offset="100%" style="stop-color:#312e81;stop-opacity:1" />
    </radialGradient>
    
    <!-- ゴーストの影 -->
    <filter id="dropshadow">
      <feDropShadow dx="3" dy="6" stdDeviation="4" flood-opacity="0.2"/>
    </filter>
    
    <!-- 輝きエフェクト -->
    <filter id="glow">
      <feGaussianBlur stdDeviation="3" result="coloredBlur"/>
      <feMerge> 
        <feMergeNode in="coloredBlur"/>
        <feMergeNode in="SourceGraphic"/>
      </feMerge>
    </filter>
  </defs>
  
  <!-- 背景 -->
  <rect width="512" height="512" fill="url(#bgGradient)" rx="64"/>
  
  <!-- ゴースト本体 -->
  <path d="M 256 80 
           C 200 80, 150 130, 150 186
           L 150 380
           C 150 395, 160 405, 170 395
           L 185 380
           C 195 370, 210 380, 220 395
           L 235 410
           C 245 420, 255 410, 265 395
           L 280 380
           C 290 370, 305 380, 315 395
           L 330 410
           C 340 420, 350 410, 360 395
           L 362 380
           C 362 130, 312 80, 256 80 Z" 
        fill="#ffffff" 
        stroke="#e5e7eb" 
        stroke-width="3"
        filter="url(#dropshadow)"/>
  
  <!-- ゴーストの目（シンプルな楕円） -->
  <ellipse cx="220" cy="160" rx="18" ry="25" fill="#000000"/>
  <ellipse cx="292" cy="160" rx="18" ry="25" fill="#000000"/>
  
  <!-- ゴーストの口（小さな微笑み） -->
  <path d="M 240 200 Q 256 210, 272 200" 
        stroke="#000000" 
        stroke-width="3" 
        fill="none" 
        stroke-linecap="round"/>
  
  <!-- ノートパソコン -->
  <g transform="translate(180, 250)">
    <!-- ノートPCの底面 -->
    <rect x="0" y="40" width="150" height="8" fill="#1f2937" rx="4"/>
    
    <!-- ノートPCの画面部分 -->
    <rect x="5" y="0" width="140" height="45" fill="#374151" rx="4"/>
    
    <!-- 画面の内側 -->
    <rect x="12" y="5" width="126" height="35" fill="#111827" rx="2"/>
    
    <!-- 画面上のコード/テキスト -->
    <g fill="#10b981" opacity="0.8">
      <rect x="18" y="10" width="40" height="2" rx="1"/>
      <rect x="18" y="15" width="60" height="2" rx="1"/>
      <rect x="18" y="20" width="35" height="2" rx="1"/>
      <rect x="18" y="25" width="50" height="2" rx="1"/>
      <rect x="18" y="30" width="25" height="2" rx="1"/>
    </g>
    
    <!-- カーソル点滅効果 -->
    <rect x="45" y="30" width="1" height="4" fill="#10b981" opacity="0.9"/>
    
    <!-- キーボード -->
    <rect x="15" y="48" width="120" height="15" fill="#4b5563" rx="2"/>
    
    <!-- キーボードのキー（簡略化） -->
    <g fill="#6b7280">
      <rect x="20" y="52" width="8" height="3" rx="1"/>
      <rect x="30" y="52" width="8" height="3" rx="1"/>
      <rect x="40" y="52" width="8" height="3" rx="1"/>
      <rect x="50" y="52" width="8" height="3" rx="1"/>
      <rect x="60" y="52" width="8" height="3" rx="1"/>
      <rect x="70" y="52" width="8" height="3" rx="1"/>
      <rect x="80" y="52" width="8" height="3" rx="1"/>
      <rect x="90" y="52" width="8" height="3" rx="1"/>
      <rect x="100" y="52" width="8" height="3" rx="1"/>
      <rect x="110" y="52" width="8" height="3" rx="1"/>
      
      <rect x="25" y="57" width="8" height="3" rx="1"/>
      <rect x="35" y="57" width="8" height="3" rx="1"/>
      <rect x="45" y="57" width="8" height="3" rx="1"/>
      <rect x="55" y="57" width="8" height="3" rx="1"/>
      <rect x="65" y="57" width="8" height="3" rx="1"/>
      <rect x="75" y="57" width="8" height="3" rx="1"/>
      <rect x="85" y="57" width="8" height="3" rx="1"/>
      <rect x="95" y="57" width="8" height="3" rx="1"/>
      <rect x="105" y="57" width="8" height="3" rx="1"/>
    </g>
  </g>
  
  <!-- ゴーストの手/腕 -->
  <ellipse cx="200" cy="280" rx="25" ry="15" fill="#ffffff" stroke="#e5e7eb" stroke-width="2" filter="url(#dropshadow)"/>
  <ellipse cx="312" cy="280" rx="25" ry="15" fill="#ffffff" stroke="#e5e7eb" stroke-width="2" filter="url(#dropshadow)"/>
  
  <!-- タイピングエフェクト（小さなキラキラ） -->
  <g opacity="0.7">
    <circle cx="300" cy="270" r="2" fill="#10b981" filter="url(#glow)"/>
    <circle cx="310" cy="275" r="1.5" fill="#3b82f6" filter="url(#glow)"/>
    <circle cx="290" cy="285" r="1" fill="#f59e0b" filter="url(#glow)"/>
  </g>
  
  <!-- AIラベル -->
  <text x="256" y="50" text-anchor="middle" font-family="Arial, sans-serif" font-size="28" font-weight="bold" fill="#ffffff" opacity="0.9">AI</text>
  
  <!-- GhostWriterラベル -->
  <text x="256" y="470" text-anchor="middle" font-family="Arial, sans-serif" font-size="16" font-weight="600" fill="#ffffff" opacity="0.8">GhostWriter</text>
  
  <!-- 装飾的な円形ライン -->
  <circle cx="256" cy="256" r="230" fill="none" stroke="#ffffff" stroke-width="1" opacity="0.1"/>
  <circle cx="256" cy="256" r="210" fill="none" stroke="#ffffff" stroke-width="1" opacity="0.15"/>
</svg>